<svg width="20" height="20" viewBox="0 0 20 20" fill="none" xmlns="http://www.w3.org/2000/svg">
<path d="M10 1.66675C5.40502 1.66675 1.66669 5.40508 1.66669 10.0001C1.66669 14.5951 5.40502 18.3334 10 18.3334C14.595 18.3334 18.3334 14.5951 18.3334 10.0001C18.3334 5.40508 14.595 1.66675 10 1.66675ZM10 16.6667C6.32419 16.6667 3.33335 13.6759 3.33335 10.0001C3.33335 6.32425 6.32419 3.33341 10 3.33341C13.6759 3.33341 16.6667 6.32425 16.6667 10.0001C16.6667 13.6759 13.6759 16.6667 10 16.6667Z" fill="#2A90D9"/>
<path d="M10.8334 5.83325H9.16669V10.3449L11.9109 13.0891L13.0892 11.9108L10.8334 9.65492V5.83325Z" fill="#2A90D9"/>
</svg>
